<svg width="80" height="63" viewBox="0 0 80 63" fill="none" xmlns="http://www.w3.org/2000/svg">
<path d="M78.8863 33.5L53.5581 33.5L27.7809 62.5L53.109 62.5L78.8863 33.5Z" stroke="white"/>
<path d="M52.2188 62.5L26.8906 62.5L1.11341 33.5L26.4416 33.5L52.2188 62.5Z" stroke="white"/>
<path d="M12.4 12.292C12.6893 13.0573 13.1467 13.6407 13.772 14.042C14.4067 14.4433 15.158 14.644 16.026 14.644C16.9033 14.644 17.6127 14.462 18.154 14.098C18.6953 13.734 18.966 13.23 18.966 12.586C18.966 11.9887 18.7747 11.5267 18.392 11.2C18.0093 10.8733 17.4727 10.612 16.782 10.416L15.074 9.912C13.1047 9.34267 12.12 8.32067 12.12 6.846C12.12 6.258 12.2787 5.74 12.596 5.292C12.9227 4.844 13.366 4.49867 13.926 4.256C14.486 4.01333 15.1113 3.892 15.802 3.892C16.8007 3.892 17.6547 4.13933 18.364 4.634C19.0733 5.12867 19.5773 5.782 19.876 6.594L18.994 7C18.714 6.30933 18.3033 5.77267 17.762 5.39C17.2207 5.00733 16.5673 4.816 15.802 4.816C14.9993 4.816 14.3507 4.998 13.856 5.362C13.3613 5.726 13.114 6.22067 13.114 6.846C13.114 7.42467 13.3053 7.87733 13.688 8.204C14.08 8.53067 14.612 8.792 15.284 8.988L16.992 9.492C17.888 9.76267 18.6067 10.136 19.148 10.612C19.6987 11.088 19.974 11.746 19.974 12.586C19.974 13.1927 19.8013 13.72 19.456 14.168C19.1107 14.616 18.6393 14.9613 18.042 15.204C17.4447 15.4467 16.7727 15.568 16.026 15.568C14.934 15.568 13.9867 15.316 13.184 14.812C12.3907 14.308 11.8307 13.5987 11.504 12.684L12.4 12.292ZM26.0573 15.568C25.1893 15.568 24.4007 15.3767 23.6913 14.994C22.9913 14.6113 22.4313 14.0607 22.0113 13.342C21.6007 12.614 21.3953 11.7553 21.3953 10.766V8.68C21.3953 7.7 21.6007 6.85067 22.0113 6.132C22.4313 5.404 22.996 4.84867 23.7053 4.466C24.4147 4.08333 25.1987 3.892 26.0573 3.892C27.1587 3.892 28.0873 4.2 28.8433 4.816C29.5993 5.42267 30.1173 6.26733 30.3973 7.35L29.4313 7.616C29.1887 6.70133 28.7827 6.01067 28.2133 5.544C27.6533 5.068 26.9347 4.83 26.0573 4.83C25.3667 4.83 24.746 4.984 24.1953 5.292C23.6447 5.59067 23.2107 6.03867 22.8933 6.636C22.576 7.224 22.4173 7.94267 22.4173 8.792V10.668C22.4173 11.5173 22.576 12.2407 22.8933 12.838C23.2107 13.426 23.6447 13.8693 24.1953 14.168C24.746 14.476 25.3667 14.63 26.0573 14.63C26.944 14.63 27.6673 14.3967 28.2273 13.93C28.7873 13.4633 29.1887 12.7727 29.4313 11.858L30.3973 12.124C30.1267 13.2067 29.6087 14.0513 28.8433 14.658C28.0873 15.2647 27.1587 15.568 26.0573 15.568ZM40.5893 15.358H39.4413L36.7673 10.542C36.674 10.5513 36.534 10.556 36.3473 10.556H33.2673V15.358H32.2453V4.102H36.3473C37.6633 4.102 38.6573 4.38667 39.3293 4.956C40.0107 5.516 40.3513 6.30467 40.3513 7.322C40.3513 8.15267 40.132 8.834 39.6933 9.366C39.264 9.88867 38.62 10.2387 37.7613 10.416L40.5893 15.358ZM36.2493 9.632C37.2853 9.632 38.0553 9.44533 38.5593 9.072C39.0727 8.68933 39.3293 8.106 39.3293 7.322C39.3293 5.782 38.3027 5.012 36.2493 5.012H33.2673V9.632H36.2493ZM46.4834 15.568C45.6154 15.568 44.8268 15.3767 44.1174 14.994C43.4081 14.6113 42.8434 14.0607 42.4234 13.342C42.0128 12.614 41.8074 11.76 41.8074 10.78V8.68C41.8074 7.7 42.0128 6.85067 42.4234 6.132C42.8434 5.404 43.4081 4.84867 44.1174 4.466C44.8268 4.08333 45.6154 3.892 46.4834 3.892C47.3514 3.892 48.1401 4.08333 48.8494 4.466C49.5588 4.84867 50.1188 5.404 50.5294 6.132C50.9494 6.85067 51.1594 7.7 51.1594 8.68V10.78C51.1594 11.76 50.9494 12.614 50.5294 13.342C50.1188 14.0607 49.5588 14.6113 48.8494 14.994C48.1401 15.3767 47.3514 15.568 46.4834 15.568ZM46.4834 14.63C47.1741 14.63 47.7948 14.476 48.3454 14.168C48.9054 13.8693 49.3441 13.426 49.6614 12.838C49.9881 12.2407 50.1514 11.5173 50.1514 10.668V8.792C50.1514 7.94267 49.9881 7.224 49.6614 6.636C49.3441 6.03867 48.9054 5.59067 48.3454 5.292C47.7948 4.984 47.1741 4.83 46.4834 4.83C45.7928 4.83 45.1721 4.984 44.6214 5.292C44.0708 5.59067 43.6321 6.03867 43.3054 6.636C42.9881 7.224 42.8294 7.94267 42.8294 8.792V10.668C42.8294 11.5173 42.9881 12.2407 43.3054 12.838C43.6321 13.426 44.0708 13.8693 44.6214 14.168C45.1721 14.476 45.7928 14.63 46.4834 14.63ZM54.1169 4.102V14.448H59.6749V15.358H53.0949V4.102H54.1169ZM62.279 4.102V14.448H67.837V15.358H61.257V4.102H62.279Z" fill="white"/>
</svg>
